<svg xmlns="http://www.w3.org/2000/svg"><rect width="50" height="50" x="0" y="0" fill="#ACCC10"/><rect width="50" height="50" x="50" y="0" fill="#B4B43F"/><rect width="50" height="50" x="100" y="0" fill="#DFDF3F"/><rect width="50" height="50" x="150" y="0" fill="#B4B43F"/><rect width="50" height="50" x="200" y="0" fill="#DFDF3F"/><rect width="50" height="50" x="250" y="0" fill="#DFB43F"/><rect width="50" height="50" x="300" y="0" fill="#DFB43F"/><rect width="50" height="50" x="350" y="0" fill="#DFB43F"/><rect width="50" height="50" x="0" y="50" fill="#E0B440"/><rect width="50" height="50" x="50" y="50" fill="#DFB43F"/><rect width="50" height="50" x="100" y="50" fill="#DFDF3F"/><rect width="50" height="50" x="150" y="50" fill="#DFDF3F"/><rect width="50" height="50" x="200" y="50" fill="#B4CC3F"/><rect width="50" height="50" x="250" y="50" fill="#DFB43F"/><rect width="50" height="50" x="300" y="50" fill="#B4CC3F"/><rect width="50" height="50" x="350" y="50" fill="#DFC88D"/></svg>